<svg width="34" height="30" viewBox="0 0 34 30" fill="none" xmlns="http://www.w3.org/2000/svg">
<path fill-rule="evenodd" clip-rule="evenodd" d="M14.0346 27.7194C15.9634 29.5675 16.4474 29.4063 18.3924 27.7356L18.5543 27.59L18.6521 27.5011L18.6522 27.501C25.2112 21.545 30.0104 17.1871 31.724 12.608L24.9884 14.3042C24.99 14.373 24.9908 14.442 24.9908 14.5111C24.9908 18.8212 21.9445 22.4132 17.9069 23.2129V24.5077C17.9069 25.3982 17.1847 26.12 16.2937 26.12C15.4027 26.12 14.6805 25.3982 14.6805 24.5077V23.2458C10.5558 22.5169 7.42089 18.8835 7.42089 14.5111C7.42089 14.4456 7.4216 14.3803 7.42299 14.3152L0.715262 12.6659C2.45936 17.2452 7.27515 21.6062 13.8564 27.5576L14.0346 27.7194ZM32.4049 8.54972C32.4117 8.7375 32.4133 8.92416 32.4098 9.1098L24.335 11.1433C23.0215 7.91586 19.8765 5.64321 16.2058 5.64321C12.531 5.64321 9.38321 7.92087 8.07223 11.154L0.00373938 9.17006C-0.001839 8.96455 -0.0011913 8.75781 0.00578495 8.54972C0.102982 5.7973 1.51235 3.15823 3.79649 1.60393C8.07319 -1.31038 13.3542 0.0496308 16.2055 3.38491C19.0565 0.0496308 24.3376 -1.32657 28.6143 1.60393C30.8983 3.15823 32.3078 5.7973 32.4049 8.54972Z" fill="#28977B"/>
<path d="M16.2282 21.2831C19.845 21.2831 22.777 18.3234 22.777 14.6725C22.777 11.0216 19.845 8.06189 16.2282 8.06189C12.6114 8.06189 9.67944 11.0216 9.67944 14.6725C9.67944 18.3234 12.6114 21.2831 16.2282 21.2831Z" fill="#0C3B2E"/>
<path d="M16.4776 9.99849C13.6955 9.92201 11.4161 12.1564 11.4161 14.9152H10.4377C10.1917 14.9152 10.0715 15.2102 10.2464 15.3795L11.7714 16.9092C11.8808 17.0185 12.0502 17.0185 12.1595 16.9092L13.6845 15.3795C13.854 15.2102 13.7337 14.9152 13.4878 14.9152H12.5093C12.5093 12.7846 14.2475 11.0638 16.3902 11.0911C18.4235 11.1184 20.1345 12.8283 20.1618 14.8606C20.189 16.9966 18.4672 18.7394 16.3355 18.7394C15.4555 18.7394 14.6411 18.4388 13.9961 17.9308C13.7775 17.7615 13.4714 17.7778 13.2746 17.9745C13.045 18.2039 13.0614 18.5918 13.3183 18.7884C14.1491 19.444 15.1932 19.8319 16.3355 19.8319C19.0959 19.8319 21.3315 17.5538 21.2549 14.7732C21.1839 12.211 19.0412 10.0695 16.4776 9.99849ZM16.1989 12.73C15.9748 12.73 15.789 12.9157 15.789 13.1397V15.1501C15.789 15.3413 15.8928 15.5216 16.0568 15.6199L17.7622 16.6306C17.9589 16.7452 18.2104 16.6798 18.3253 16.4885C18.44 16.2918 18.3743 16.0406 18.1831 15.9258L16.6088 14.9917V13.1343C16.6088 12.9157 16.4229 12.73 16.1989 12.73Z" fill="white"/>
</svg>
