<svg width="128" height="17" viewBox="0 0 128 17" fill="none" xmlns="http://www.w3.org/2000/svg">
<path d="M4.82 14.2C6.42 14.2 7.22 13.56 7.22 12.28C7.22 11.6133 6.86667 11.12 6.16 10.8C5.78667 10.6133 5.3 10.44 4.7 10.28C4.11333 10.12 3.62 9.96 3.22 9.8C2.83333 9.62667 2.44 9.39333 2.04 9.1C1.25333 8.51333 0.86 7.61333 0.86 6.4C0.86 5.17333 1.28 4.21333 2.12 3.52C2.97333 2.81333 4.08 2.46 5.44 2.46C6.81333 2.46 8.08667 2.73333 9.26 3.28V6.28L7.22 6.42V5.26C7.22 5.06 7.19333 4.91333 7.14 4.82C6.99333 4.56667 6.52 4.44 5.72 4.44C4.93333 4.44 4.34667 4.58 3.96 4.86C3.58667 5.14 3.4 5.57333 3.4 6.16C3.4 6.58667 3.56 6.96 3.88 7.28C4.09333 7.49333 4.40667 7.67333 4.82 7.82C5.24667 7.95333 5.69333 8.09333 6.16 8.24C6.64 8.38667 7.06 8.54667 7.42 8.72C7.79333 8.89333 8.18 9.13333 8.58 9.44C9.39333 10.04 9.8 10.9667 9.8 12.22C9.8 13.4733 9.34667 14.46 8.44 15.18C7.54667 15.9 6.36 16.26 4.88 16.26C3.41333 16.26 2.09333 15.9867 0.92 15.44V12.28L2.96 12.14V13.36C2.96 13.56 2.98667 13.7067 3.04 13.8C3.09333 13.8933 3.25333 13.9867 3.52 14.08C3.8 14.16 4.23333 14.2 4.82 14.2ZM20.0892 6.34V13.78C20.0892 13.9933 20.1226 14.14 20.1892 14.22C20.2692 14.3 20.4026 14.3467 20.5892 14.36L21.2292 14.4V16H18.0492V14.84L17.9892 14.82C17.3226 15.78 16.4092 16.26 15.2492 16.26C13.8892 16.26 12.8826 15.8267 12.2292 14.96C11.5759 14.0933 11.2492 12.9067 11.2492 11.4C11.2492 9.58667 11.6892 8.17333 12.5692 7.16C13.4492 6.14667 14.7692 5.64 16.5292 5.64C17.6626 5.64 18.8492 5.87333 20.0892 6.34ZM17.7692 12.82V7.64C17.3959 7.46667 16.8826 7.38 16.2292 7.38C15.3359 7.38 14.6892 7.74 14.2892 8.46C13.8892 9.18 13.6892 10.1333 13.6892 11.32C13.6892 13.48 14.3826 14.56 15.7692 14.56C16.3559 14.56 16.8359 14.3867 17.2092 14.04C17.5826 13.68 17.7692 13.2733 17.7692 12.82ZM33.0569 14.42V16H29.8169V14.7C29.0835 15.74 28.0035 16.26 26.5769 16.26C24.5102 16.26 23.4769 15.1067 23.4769 12.8V8.18C23.4769 7.82 23.3102 7.63333 22.9769 7.62L22.3369 7.58V5.94H25.8569V12.28C25.8569 12.9867 25.9569 13.52 26.1569 13.88C26.3569 14.24 26.7702 14.42 27.3969 14.42C28.0235 14.42 28.5235 14.2267 28.8969 13.84C29.2835 13.4533 29.4769 12.9867 29.4769 12.44V8.22C29.4769 8.00667 29.4369 7.86 29.3569 7.78C29.2902 7.68667 29.1635 7.63333 28.9769 7.62L28.3369 7.58V5.94H31.8569V13.78C31.8569 13.9933 31.8902 14.14 31.9569 14.22C32.0235 14.2867 32.1569 14.3333 32.3569 14.36L33.0569 14.42ZM25.8769 4.12L28.1969 0.28L29.1369 0.719999C29.5235 0.933333 29.7169 1.17333 29.7169 1.44C29.7169 1.70667 29.5502 1.99333 29.2169 2.3L26.6569 4.78L25.8769 4.12ZM39.2933 5.64C39.8666 5.64 40.4133 5.72 40.9333 5.88V3.86C40.9333 3.56667 40.7599 3.40667 40.4133 3.38L39.5533 3.32V1.74H43.2733V13.9C43.2866 14.2067 43.4533 14.36 43.7733 14.36L44.4733 14.4V16H41.2333V14.82L41.1733 14.8C40.5733 15.7733 39.6666 16.26 38.4533 16.26C36.9333 16.26 35.8666 15.7533 35.2533 14.74C34.6933 13.82 34.4133 12.6933 34.4133 11.36C34.4133 9.62667 34.8399 8.24 35.6933 7.2C36.5599 6.16 37.7599 5.64 39.2933 5.64ZM40.9333 12.88V7.7C40.4533 7.48667 39.9466 7.38 39.4133 7.38C38.5333 7.38 37.8866 7.73333 37.4733 8.44C37.0733 9.14667 36.8733 10.0467 36.8733 11.14C36.8733 13.38 37.5933 14.5 39.0333 14.5C39.5799 14.5 40.0333 14.3467 40.3933 14.04C40.7533 13.72 40.9333 13.3333 40.9333 12.88ZM50.6605 5.64C51.6605 5.64 52.4538 5.88667 53.0405 6.38C53.6271 6.86 53.9205 7.54 53.9205 8.42C53.9205 9.00667 53.7938 9.52667 53.5405 9.98C53.2871 10.42 52.9738 10.7667 52.6005 11.02C52.2271 11.2733 51.7738 11.48 51.2405 11.64C50.3471 11.9067 49.3405 12.04 48.2205 12.04C48.2605 12.7467 48.4805 13.32 48.8805 13.76C49.2805 14.1867 49.8938 14.4 50.7205 14.4C51.5471 14.4 52.3738 14.1067 53.2005 13.52L53.9605 15.14C53.6938 15.38 53.2405 15.6267 52.6005 15.88C51.9738 16.1333 51.2538 16.26 50.4405 16.26C48.8138 16.26 47.6205 15.8133 46.8605 14.92C46.1005 14.0133 45.7205 12.7733 45.7205 11.2C45.7205 9.62667 46.1538 8.30667 47.0205 7.24C47.8871 6.17333 49.1005 5.64 50.6605 5.64ZM49.7405 10.22C50.2338 10.1267 50.6871 9.93333 51.1005 9.64C51.5138 9.33333 51.7205 8.97333 51.7205 8.56C51.7205 7.74667 51.3205 7.34 50.5205 7.34C49.7738 7.34 49.2005 7.64 48.8005 8.24C48.4005 8.82667 48.1805 9.53333 48.1405 10.36C48.7271 10.3467 49.2605 10.3 49.7405 10.22ZM64.3519 5.64C65.3519 5.64 66.1452 5.88667 66.7319 6.38C67.3185 6.86 67.6119 7.54 67.6119 8.42C67.6119 9.00667 67.4852 9.52667 67.2319 9.98C66.9785 10.42 66.6652 10.7667 66.2919 11.02C65.9185 11.2733 65.4652 11.48 64.9319 11.64C64.0385 11.9067 63.0319 12.04 61.9119 12.04C61.9519 12.7467 62.1719 13.32 62.5719 13.76C62.9719 14.1867 63.5852 14.4 64.4119 14.4C65.2385 14.4 66.0652 14.1067 66.8919 13.52L67.6519 15.14C67.3852 15.38 66.9319 15.6267 66.2919 15.88C65.6652 16.1333 64.9452 16.26 64.1319 16.26C62.5052 16.26 61.3119 15.8133 60.5519 14.92C59.7919 14.0133 59.4119 12.7733 59.4119 11.2C59.4119 9.62667 59.8452 8.30667 60.7119 7.24C61.5785 6.17333 62.7919 5.64 64.3519 5.64ZM63.4319 10.22C63.9252 10.1267 64.3785 9.93333 64.7919 9.64C65.2052 9.33333 65.4119 8.97333 65.4119 8.56C65.4119 7.74667 65.0119 7.34 64.2119 7.34C63.4652 7.34 62.8919 7.64 62.4919 8.24C62.0919 8.82667 61.8719 9.53333 61.8319 10.36C62.4185 10.3467 62.9519 10.3 63.4319 10.22ZM73.0033 16V14.38L73.6633 14.32C74.0499 14.28 74.2433 14.0933 74.2433 13.76V4.46L73.1033 4.4V2.7H78.8233C80.3166 2.7 81.4766 3.05333 82.3033 3.76C83.1433 4.45333 83.5633 5.5 83.5633 6.9C83.5633 8.3 83.0899 9.39333 82.1433 10.18C81.1966 10.9533 79.9433 11.34 78.3833 11.34H76.6833V14.24L78.6033 14.3V16H73.0033ZM76.6833 9.4H78.1233C80.0699 9.4 81.0433 8.60667 81.0433 7.02C81.0433 6.06 80.7899 5.42667 80.2833 5.12C79.7899 4.8 78.9966 4.64 77.9033 4.64H76.6833V9.4ZM88.8147 14.54C90.268 14.54 90.9947 13.3667 90.9947 11.02C90.9947 9.83333 90.828 8.93333 90.4947 8.32C90.1747 7.70667 89.628 7.4 88.8547 7.4C88.0947 7.4 87.5347 7.69333 87.1747 8.28C86.8147 8.86667 86.6347 9.66667 86.6347 10.68C86.6347 12.56 86.9814 13.74 87.6747 14.22C87.9814 14.4333 88.3614 14.54 88.8147 14.54ZM84.2147 10.96C84.2147 9.97333 84.3614 9.12 84.6547 8.4C84.948 7.66667 85.3414 7.10667 85.8347 6.72C86.7814 6 87.828 5.64 88.9747 5.64C89.7747 5.64 90.448 5.77333 90.9947 6.04C91.5547 6.29333 91.988 6.59333 92.2947 6.94C92.6147 7.27333 92.8814 7.76667 93.0947 8.42C93.3214 9.06 93.4347 9.82 93.4347 10.7C93.4347 12.54 92.988 13.9333 92.0947 14.88C91.2014 15.8267 90.0547 16.3 88.6547 16.3C87.268 16.3 86.1814 15.8533 85.3947 14.96C84.608 14.0533 84.2147 12.72 84.2147 10.96ZM94.6611 7.54V5.94H98.0411V7.24C98.3878 6.74667 98.8478 6.36 99.4211 6.08C99.9944 5.78667 100.614 5.64 101.281 5.64C102.294 5.64 103.074 5.93333 103.621 6.52C104.181 7.09333 104.461 7.96 104.461 9.12V14.34L105.601 14.4V16H100.841V14.48L101.501 14.42C101.701 14.3933 101.848 14.34 101.941 14.26C102.034 14.1667 102.081 14 102.081 13.76V9.64C102.081 8.90667 101.968 8.36667 101.741 8.02C101.514 7.66 101.081 7.48 100.441 7.48C99.8144 7.48 99.3144 7.68 98.9411 8.08C98.5678 8.48 98.3811 8.95333 98.3811 9.5V14.34L99.5211 14.4V16H94.7611V14.48L95.4211 14.42C95.6211 14.3933 95.7678 14.34 95.8611 14.26C95.9544 14.1667 96.0011 14 96.0011 13.76V8.22C96.0011 7.82 95.8344 7.61333 95.5011 7.6L94.6611 7.54ZM108.193 3.82H109.493V5.94H112.153L111.953 7.62H109.493V12.88C109.493 13.4667 109.599 13.88 109.813 14.12C110.026 14.3467 110.353 14.46 110.793 14.46C111.246 14.46 111.699 14.32 112.153 14.04L112.753 15.58C112.086 16.0467 111.239 16.28 110.213 16.28C109.613 16.28 109.106 16.2 108.693 16.04C108.279 15.8933 107.973 15.7267 107.773 15.54C107.573 15.3533 107.419 15.08 107.313 14.72C107.206 14.36 107.146 14.08 107.133 13.88C107.119 13.6667 107.113 13.36 107.113 12.96V7.62H105.693L105.893 6.16C106.519 6.10667 106.993 5.88667 107.313 5.5C107.633 5.1 107.926 4.54 108.193 3.82ZM117.721 14.54C119.174 14.54 119.901 13.3667 119.901 11.02C119.901 9.83333 119.734 8.93333 119.401 8.32C119.081 7.70667 118.534 7.4 117.761 7.4C117.001 7.4 116.441 7.69333 116.081 8.28C115.721 8.86667 115.541 9.66667 115.541 10.68C115.541 12.56 115.888 13.74 116.581 14.22C116.888 14.4333 117.268 14.54 117.721 14.54ZM113.121 10.96C113.121 9.97333 113.268 9.12 113.561 8.4C113.854 7.66667 114.248 7.10667 114.741 6.72C115.688 6 116.734 5.64 117.881 5.64C118.681 5.64 119.354 5.77333 119.901 6.04C120.461 6.29333 120.894 6.59333 121.201 6.94C121.521 7.27333 121.788 7.76667 122.001 8.42C122.228 9.06 122.341 9.82 122.341 10.7C122.341 12.54 121.894 13.9333 121.001 14.88C120.108 15.8267 118.961 16.3 117.561 16.3C116.174 16.3 115.088 15.8533 114.301 14.96C113.514 14.0533 113.121 12.72 113.121 10.96ZM124.707 5.42V3.04C124.707 2.41333 125.081 2.1 125.827 2.1C126.574 2.1 126.947 2.42667 126.947 3.08V5.42L126.547 12.4H125.127L124.707 5.42ZM125.787 16.34C125.374 16.34 125.041 16.2133 124.787 15.96C124.547 15.7067 124.427 15.3933 124.427 15.02C124.427 14.6467 124.554 14.3333 124.807 14.08C125.061 13.8133 125.387 13.68 125.787 13.68C126.201 13.68 126.534 13.8067 126.787 14.06C127.041 14.3 127.167 14.6067 127.167 14.98C127.167 15.3533 127.041 15.6733 126.787 15.94C126.547 16.2067 126.214 16.34 125.787 16.34Z" fill="#53C3A7"/>
</svg>
