<svg xmlns="http://www.w3.org/2000/svg" version="1.1" xmlns:xlink="http://www.w3.org/1999/xlink" xmlns:svgjs="http://svgjs.com/svgjs" width="946" height="671" preserveAspectRatio="none" viewBox="0 0 946 671"><g mask="url(&quot;#SvgjsMask1018&quot;)" fill="none"><rect width="946" height="671" x="0" y="0" fill="rgba(83, 195, 167, 1)"></rect><path d="M 0,50 C 38,91.8 114,256.6 190,259 C 266,261.4 304,54.8 380,62 C 456,69.2 494,281 570,295 C 646,309 684.8,138.8 760,132 C 835.2,125.2 908.8,235.2 946,261L946 671L0 671z" fill="rgba(40, 151, 123, 1)"></path><path d="M 0,553 C 63.2,515.4 189.6,374.2 316,365 C 442.4,355.8 506,494.4 632,507 C 758,519.6 883.2,443.8 946,428L946 671L0 671z" fill="rgba(12, 59, 46, 1)"></path></g><defs><mask id="SvgjsMask1018"><rect width="946" height="671" fill="#ffffff"></rect></mask></defs></svg>